# xmcd
#
# Track frame offsets: 
#        150
#        15238
#        37139
#        55314
#        73751
#        88687
#        107574
#        128953
#        147103
#        166465
#        185051
#        212787
#        224904
#
# Disc length: 3228 seconds
#
# Revision: 3
# Processed by: cddbd v1.5.2PL0 Copyright (c) Steve Scherf et al.
# Submitted via: ExactAudioCopyFreeDBPlugin 1.0
#
DISCID=ca0c9a0d
DTITLE=John Mayer - Continuum
DYEAR=2008
DGENRE=Blues/Rock
TTITLE0=Waiting On The World To Change
TTITLE1=I Don't Trust Myself (With Loving You)
TTITLE2=Belief
TTITLE3=Gravity
TTITLE4=The Heart Of Life
TTITLE5=Vultures
TTITLE6=Stop This Train
TTITLE7=Slow Dancing In A Burning Room
TTITLE8=Bold As Love
TTITLE9=Dreaming With A Broken Heart
TTITLE10=In Repair
TTITLE11=I'm Gonna Find Another You
TTITLE12=Say
EXTD=
EXTT0=
EXTT1=
EXTT2=
EXTT3=
EXTT4=
EXTT5=
EXTT6=
EXTT7=
EXTT8=
EXTT9=
EXTT10=
EXTT11=
EXTT12=
PLAYORDER=
